<svg xmlns="http://www.w3.org/2000/svg" width="1024" height="1024" viewBox="0 0 1000 1000">
  <title>ㅂ (bieup)</title>
  <desc>Hangul asset containing a full glyph outline and ordered stroke-path overlays. Glyph outline is derived from Noto Sans CJK KR. Stroke paths are schematic instructional paths and should be validated against the canonical handwriting guide before production use.</desc>
  <rect x="0" y="0" width="1000" height="1000" rx="64" fill="#FBFAF6"/>
  <g id="grid" opacity="0.08" stroke="#1A1A1A" stroke-width="2">
    <line x1="180" y1="140" x2="180" y2="860"/>
    <line x1="500" y1="140" x2="500" y2="860"/>
    <line x1="820" y1="140" x2="820" y2="860"/>
    <line x1="140" y1="180" x2="860" y2="180"/>
    <line x1="140" y1="500" x2="860" y2="500"/>
    <line x1="140" y1="820" x2="860" y2="820"/>
  </g>
  <g id="glyph-outline" transform="translate(-13.714,919.607) scale(1.107143,-1.107143)">
    <path d="M184 623V135H744V623H661V457H265V623ZM265 384H661V208H265Z" fill="#DCEADF" stroke="#C1D9C5" stroke-width="10"/>
  </g>
  <g id="stroke-order-overlay">
    <g id="stroke-labels"><g id="stroke-label-1"><circle cx="300" cy="220" r="22" fill="#2E8B57"/><text x="300" y="228" text-anchor="middle" font-family="Arial, sans-serif" font-size="24" fill="#ffffff">1</text></g><g id="stroke-label-2"><circle cx="700" cy="220" r="22" fill="#2E8B57"/><text x="700" y="228" text-anchor="middle" font-family="Arial, sans-serif" font-size="24" fill="#ffffff">2</text></g><g id="stroke-label-3"><circle cx="300" cy="500" r="22" fill="#2E8B57"/><text x="300" y="508" text-anchor="middle" font-family="Arial, sans-serif" font-size="24" fill="#ffffff">3</text></g><g id="stroke-label-4"><circle cx="300" cy="780" r="22" fill="#2E8B57"/><text x="300" y="788" text-anchor="middle" font-family="Arial, sans-serif" font-size="24" fill="#ffffff">4</text></g></g>
    <g id="stroke-paths"><path id="stroke-1" d="M 300 220 L 300 780" fill="none" stroke="#2E8B57" stroke-width="28" stroke-linecap="round" stroke-linejoin="round" opacity="0.95"/><path id="stroke-2" d="M 700 220 L 700 780" fill="none" stroke="#2E8B57" stroke-width="28" stroke-linecap="round" stroke-linejoin="round" opacity="0.95"/><path id="stroke-3" d="M 300 500 L 700 500" fill="none" stroke="#2E8B57" stroke-width="28" stroke-linecap="round" stroke-linejoin="round" opacity="0.95"/><path id="stroke-4" d="M 300 780 L 700 780" fill="none" stroke="#2E8B57" stroke-width="28" stroke-linecap="round" stroke-linejoin="round" opacity="0.95"/></g>
    <g id="start-dots"><circle cx="300" cy="220" r="10" fill="#1F6F46"/><circle cx="700" cy="220" r="10" fill="#1F6F46"/><circle cx="300" cy="500" r="10" fill="#1F6F46"/><circle cx="300" cy="780" r="10" fill="#1F6F46"/></g>
  </g>
  <g id="metadata">
    <text x="500" y="92" text-anchor="middle" font-family="Arial, sans-serif" font-size="36" fill="#1F2937">ㅂ</text>
    <text x="500" y="940" text-anchor="middle" font-family="Arial, sans-serif" font-size="26" fill="#4B5563">bieup · consonant · 4 strokes</text>
  </g>
</svg>
