<svg xmlns="http://www.w3.org/2000/svg" width="1024" height="1024" viewBox="0 0 1000 1000">
  <title>ㅎ (hieut)</title>
  <desc>Hangul asset containing a full glyph outline and ordered stroke-path overlays. Glyph outline is derived from Noto Sans CJK KR. Stroke paths are schematic instructional paths and should be validated against the canonical handwriting guide before production use.</desc>
  <rect x="0" y="0" width="1000" height="1000" rx="64" fill="#FBFAF6"/>
  <g id="grid" opacity="0.08" stroke="#1A1A1A" stroke-width="2">
    <line x1="180" y1="140" x2="180" y2="860"/>
    <line x1="500" y1="140" x2="500" y2="860"/>
    <line x1="820" y1="140" x2="820" y2="860"/>
    <line x1="140" y1="180" x2="860" y2="180"/>
    <line x1="140" y1="500" x2="860" y2="500"/>
    <line x1="140" y1="820" x2="860" y2="820"/>
  </g>
  <g id="glyph-outline" transform="translate(19.500,896.283) scale(1.033333,-1.033333)">
    <path d="M465 422C337 422 243 353 243 257C243 160 337 91 465 91C594 91 688 160 688 257C688 353 594 422 465 422ZM465 352C544 352 603 313 603 257C603 200 544 161 465 161C387 161 328 200 328 257C328 313 387 352 465 352ZM424 676V555H165V486H765V555H507V676Z" fill="#DCEADF" stroke="#C1D9C5" stroke-width="10"/>
  </g>
  <g id="stroke-order-overlay">
    <g id="stroke-labels"><g id="stroke-label-1"><circle cx="410" cy="210" r="22" fill="#2E8B57"/><text x="410" y="218" text-anchor="middle" font-family="Arial, sans-serif" font-size="24" fill="#ffffff">1</text></g><g id="stroke-label-2"><circle cx="300" cy="320" r="22" fill="#2E8B57"/><text x="300" y="328" text-anchor="middle" font-family="Arial, sans-serif" font-size="24" fill="#ffffff">2</text></g><g id="stroke-label-3"><circle cx="500" cy="470" r="22" fill="#2E8B57"/><text x="500" y="478" text-anchor="middle" font-family="Arial, sans-serif" font-size="24" fill="#ffffff">3</text></g></g>
    <g id="stroke-paths"><path id="stroke-1" d="M 410 210 L 590 210" fill="none" stroke="#2E8B57" stroke-width="28" stroke-linecap="round" stroke-linejoin="round" opacity="0.95"/><path id="stroke-2" d="M 300 320 L 700 320" fill="none" stroke="#2E8B57" stroke-width="28" stroke-linecap="round" stroke-linejoin="round" opacity="0.95"/><path id="stroke-3" d="M 500 470 C 621 470 720 535 720 620 C 720 705 621 770 500 770 C 379 770 280 705 280 620 C 280 535 379 470 500 470" fill="none" stroke="#2E8B57" stroke-width="28" stroke-linecap="round" stroke-linejoin="round" opacity="0.95"/></g>
    <g id="start-dots"><circle cx="410" cy="210" r="10" fill="#1F6F46"/><circle cx="300" cy="320" r="10" fill="#1F6F46"/><circle cx="500" cy="470" r="10" fill="#1F6F46"/></g>
  </g>
  <g id="metadata">
    <text x="500" y="92" text-anchor="middle" font-family="Arial, sans-serif" font-size="36" fill="#1F2937">ㅎ</text>
    <text x="500" y="940" text-anchor="middle" font-family="Arial, sans-serif" font-size="26" fill="#4B5563">hieut · consonant · 3 strokes</text>
  </g>
</svg>
