<svg xmlns="http://www.w3.org/2000/svg" width="1024" height="1024" viewBox="0 0 1000 1000">
  <title>ㅇ (ieung)</title>
  <desc>Hangul asset containing a full glyph outline and ordered stroke-path overlays. Glyph outline is derived from Noto Sans CJK KR. Stroke paths are schematic instructional paths and should be validated against the canonical handwriting guide before production use.</desc>
  <rect x="0" y="0" width="1000" height="1000" rx="64" fill="#FBFAF6"/>
  <g id="grid" opacity="0.08" stroke="#1A1A1A" stroke-width="2">
    <line x1="180" y1="140" x2="180" y2="860"/>
    <line x1="500" y1="140" x2="500" y2="860"/>
    <line x1="820" y1="140" x2="820" y2="860"/>
    <line x1="140" y1="180" x2="860" y2="180"/>
    <line x1="140" y1="500" x2="860" y2="500"/>
    <line x1="140" y1="820" x2="860" y2="820"/>
  </g>
  <g id="glyph-outline" transform="translate(-5.327,914.796) scale(1.097345,-1.097345)">
    <path d="M460 627C302 627 178 523 178 378C178 233 302 129 460 129C619 129 743 233 743 378C743 523 619 627 460 627ZM460 555C574 555 662 481 662 378C662 275 574 199 460 199C347 199 258 275 258 378C258 481 347 555 460 555Z" fill="#DCEADF" stroke="#C1D9C5" stroke-width="10"/>
  </g>
  <g id="stroke-order-overlay">
    <g id="stroke-labels"><g id="stroke-label-1"><circle cx="500" cy="220" r="22" fill="#2E8B57"/><text x="500" y="228" text-anchor="middle" font-family="Arial, sans-serif" font-size="24" fill="#ffffff">1</text></g></g>
    <g id="stroke-paths"><path id="stroke-1" d="M 500 220 C 621 220 720 345 720 500 C 720 655 621 780 500 780 C 379 780 280 655 280 500 C 280 345 379 220 500 220" fill="none" stroke="#2E8B57" stroke-width="28" stroke-linecap="round" stroke-linejoin="round" opacity="0.95"/></g>
    <g id="start-dots"><circle cx="500" cy="220" r="10" fill="#1F6F46"/></g>
  </g>
  <g id="metadata">
    <text x="500" y="92" text-anchor="middle" font-family="Arial, sans-serif" font-size="36" fill="#1F2937">ㅇ</text>
    <text x="500" y="940" text-anchor="middle" font-family="Arial, sans-serif" font-size="26" fill="#4B5563">ieung · consonant · 1 stroke</text>
  </g>
</svg>
