<svg xmlns="http://www.w3.org/2000/svg" width="1024" height="1024" viewBox="0 0 1000 1000">
  <title>ㅈ (jieut)</title>
  <desc>Hangul asset containing a full glyph outline and ordered stroke-path overlays. Glyph outline is derived from Noto Sans CJK KR. Stroke paths are schematic instructional paths and should be validated against the canonical handwriting guide before production use.</desc>
  <rect x="0" y="0" width="1000" height="1000" rx="64" fill="#FBFAF6"/>
  <g id="grid" opacity="0.08" stroke="#1A1A1A" stroke-width="2">
    <line x1="180" y1="140" x2="180" y2="860"/>
    <line x1="500" y1="140" x2="500" y2="860"/>
    <line x1="820" y1="140" x2="820" y2="860"/>
    <line x1="140" y1="180" x2="860" y2="180"/>
    <line x1="140" y1="500" x2="860" y2="500"/>
    <line x1="140" y1="820" x2="860" y2="820"/>
  </g>
  <g id="glyph-outline" transform="translate(24.056,882.791) scale(1.018062,-1.018062)">
    <path d="M189 622V554H426V494C426 345 317 236 163 195L203 130C325 166 423 242 467 352C512 242 610 166 732 130L772 195C618 236 509 345 509 494V554H748V622Z" fill="#DCEADF" stroke="#C1D9C5" stroke-width="10"/>
  </g>
  <g id="stroke-order-overlay">
    <g id="stroke-labels"><g id="stroke-label-1"><circle cx="320" cy="260" r="22" fill="#2E8B57"/><text x="320" y="268" text-anchor="middle" font-family="Arial, sans-serif" font-size="24" fill="#ffffff">1</text></g><g id="stroke-label-2"><circle cx="500" cy="320" r="22" fill="#2E8B57"/><text x="500" y="328" text-anchor="middle" font-family="Arial, sans-serif" font-size="24" fill="#ffffff">2</text></g><g id="stroke-label-3"><circle cx="500" cy="320" r="22" fill="#2E8B57"/><text x="500" y="328" text-anchor="middle" font-family="Arial, sans-serif" font-size="24" fill="#ffffff">3</text></g></g>
    <g id="stroke-paths"><path id="stroke-1" d="M 320 260 L 700 260" fill="none" stroke="#2E8B57" stroke-width="28" stroke-linecap="round" stroke-linejoin="round" opacity="0.95"/><path id="stroke-2" d="M 500 320 C 495 430 430 560 300 700" fill="none" stroke="#2E8B57" stroke-width="28" stroke-linecap="round" stroke-linejoin="round" opacity="0.95"/><path id="stroke-3" d="M 500 320 C 505 430 570 560 740 700" fill="none" stroke="#2E8B57" stroke-width="28" stroke-linecap="round" stroke-linejoin="round" opacity="0.95"/></g>
    <g id="start-dots"><circle cx="320" cy="260" r="10" fill="#1F6F46"/><circle cx="500" cy="320" r="10" fill="#1F6F46"/><circle cx="500" cy="320" r="10" fill="#1F6F46"/></g>
  </g>
  <g id="metadata">
    <text x="500" y="92" text-anchor="middle" font-family="Arial, sans-serif" font-size="36" fill="#1F2937">ㅈ</text>
    <text x="500" y="940" text-anchor="middle" font-family="Arial, sans-serif" font-size="26" fill="#4B5563">jieut · consonant · 3 strokes</text>
  </g>
</svg>
