<svg xmlns="http://www.w3.org/2000/svg" width="1024" height="1024" viewBox="0 0 1000 1000">
  <title>ㅜ (u)</title>
  <desc>Hangul asset containing a full glyph outline and ordered stroke-path overlays. Glyph outline is derived from Noto Sans CJK KR. Stroke paths are schematic instructional paths and should be validated against the canonical handwriting guide before production use.</desc>
  <rect x="0" y="0" width="1000" height="1000" rx="64" fill="#FBFAF6"/>
  <g id="grid" opacity="0.08" stroke="#1A1A1A" stroke-width="2">
    <line x1="180" y1="140" x2="180" y2="860"/>
    <line x1="500" y1="140" x2="500" y2="860"/>
    <line x1="820" y1="140" x2="820" y2="860"/>
    <line x1="140" y1="180" x2="860" y2="180"/>
    <line x1="140" y1="500" x2="860" y2="500"/>
    <line x1="140" y1="820" x2="860" y2="820"/>
  </g>
  <g id="glyph-outline" transform="translate(145.823,721.646) scale(0.761671,-0.761671)">
    <path d="M58 519V451H423V63H506V451H872V519Z" fill="#DCEADF" stroke="#C1D9C5" stroke-width="10"/>
  </g>
  <g id="stroke-order-overlay">
    <g id="stroke-labels"><g id="stroke-label-1"><circle cx="300" cy="320" r="22" fill="#2E8B57"/><text x="300" y="328" text-anchor="middle" font-family="Arial, sans-serif" font-size="24" fill="#ffffff">1</text></g><g id="stroke-label-2"><circle cx="500" cy="320" r="22" fill="#2E8B57"/><text x="500" y="328" text-anchor="middle" font-family="Arial, sans-serif" font-size="24" fill="#ffffff">2</text></g></g>
    <g id="stroke-paths"><path id="stroke-1" d="M 300 320 L 700 320" fill="none" stroke="#2E8B57" stroke-width="28" stroke-linecap="round" stroke-linejoin="round" opacity="0.95"/><path id="stroke-2" d="M 500 320 L 500 680" fill="none" stroke="#2E8B57" stroke-width="28" stroke-linecap="round" stroke-linejoin="round" opacity="0.95"/></g>
    <g id="start-dots"><circle cx="300" cy="320" r="10" fill="#1F6F46"/><circle cx="500" cy="320" r="10" fill="#1F6F46"/></g>
  </g>
  <g id="metadata">
    <text x="500" y="92" text-anchor="middle" font-family="Arial, sans-serif" font-size="36" fill="#1F2937">ㅜ</text>
    <text x="500" y="940" text-anchor="middle" font-family="Arial, sans-serif" font-size="26" fill="#4B5563">u · vowel · 2 strokes</text>
  </g>
</svg>
